<?xml version="1.0" encoding="UTF-8" standalone="no"?>
<!-- Created with Inkscape (http://www.inkscape.org/) -->

<svg
   width="210mm"
   height="210mm"
   viewBox="0 0 210 210"
   version="1.1"
   id="svg1"
   inkscape:version="1.4.2 (ebf0e940d0, 2025-05-08)"
   sodipodi:docname="lon.svg"
   xmlns:inkscape="http://www.inkscape.org/namespaces/inkscape"
   xmlns:sodipodi="http://sodipodi.sourceforge.net/DTD/sodipodi-0.dtd"
   xmlns="http://www.w3.org/2000/svg"
   xmlns:svg="http://www.w3.org/2000/svg">
  <sodipodi:namedview
     id="namedview1"
     pagecolor="#ffffff"
     bordercolor="#000000"
     borderopacity="0.25"
     inkscape:showpageshadow="2"
     inkscape:pageopacity="0.0"
     inkscape:pagecheckerboard="0"
     inkscape:deskcolor="#d1d1d1"
     inkscape:document-units="mm"
     showguides="true"
     inkscape:zoom="0.57272302"
     inkscape:cx="579.68684"
     inkscape:cy="323.01827"
     inkscape:window-width="1503"
     inkscape:window-height="933"
     inkscape:window-x="0"
     inkscape:window-y="0"
     inkscape:window-maximized="1"
     inkscape:current-layer="layer1" />
  <defs
     id="defs1" />
  <g
     inkscape:label="Layer 1"
     inkscape:groupmode="layer"
     id="layer1">
    <circle
       style="fill:#f48037;fill-opacity:1;stroke:none;stroke-width:11.0464;stroke-linecap:round;stroke-linejoin:round;stroke-dasharray:none;stroke-opacity:1;paint-order:normal"
       id="path11"
       cx="105"
       cy="105"
       r="105" />
    <circle
       id="path1"
       style="fill:#000000;stroke:none;stroke-width:1.96989;stroke-linecap:round;stroke-dasharray:none;paint-order:normal"
       cx="59.92004"
       cy="116.30474"
       r="0" />
    <circle
       id="circle9"
       style="fill:#000000;stroke:none;stroke-width:1.96989;stroke-linecap:round;stroke-dasharray:none;paint-order:normal"
       cx="-143.42972"
       cy="116.30474"
       r="0"
       transform="scale(-1,1)" />
    <g
       id="g23"
       transform="matrix(0.51050221,0.28140148,-0.28140148,0.51050221,74.496298,227.54189)"
       style="fill:#f48037;fill-opacity:1;stroke:#ffffff;stroke-width:7.39938;stroke-dasharray:none;stroke-opacity:1" />
    <g
       id="g29"
       transform="matrix(0.53915894,0.93385067,-0.93385067,0.53915894,164.56523,-1.0401011)"
       style="stroke-width:5;stroke-dasharray:none">
      <path
         id="path26"
         style="fill:#f48037;fill-opacity:1;stroke:#ffffff;stroke-width:5;stroke-linecap:round;stroke-dasharray:none;stroke-opacity:1"
         d="m 71.537129,37.745303 h 13.472715 c 5.106958,0 9.218335,4.111381 9.218335,9.218335 v 21.52069 c -8.843104,0 -21.667621,5e-6 -31.909385,0 v -21.52069 c 0,-5.106954 4.111378,-9.218335 9.218335,-9.218335 z"
         sodipodi:nodetypes="sssccss" />
      <rect
         style="fill:#f48037;fill-opacity:1;stroke:#ffffff;stroke-width:5;stroke-linecap:round;stroke-dasharray:none;stroke-opacity:1"
         id="rect27"
         width="31.909386"
         height="30.739027"
         x="62.318794"
         y="129.96239"
         ry="0" />
      <rect
         style="fill:#f48037;fill-opacity:1;stroke:#ffffff;stroke-width:5;stroke-linecap:round;stroke-dasharray:none;stroke-opacity:1"
         id="rect28"
         width="31.909386"
         height="30.739027"
         x="62.318794"
         y="99.223351"
         ry="0" />
      <rect
         style="fill:#f48037;fill-opacity:1;stroke:#ffffff;stroke-width:5;stroke-linecap:round;stroke-dasharray:none;stroke-opacity:1"
         id="rect29"
         width="31.909386"
         height="30.739027"
         x="62.318794"
         y="68.484329"
         ry="0" />
    </g>
    <g
       id="g26"
       transform="matrix(0.93385067,0.53915894,-0.53915894,0.93385067,77.073513,-26.744037)"
       style="stroke-width:5;stroke-dasharray:none">
      <path
         id="path24"
         style="fill:#f48037;fill-opacity:1;stroke:#ffffff;stroke-width:5;stroke-linecap:round;stroke-dasharray:none;stroke-opacity:1"
         d="m 71.537129,37.745303 h 13.472715 c 5.106958,0 9.218335,4.111381 9.218335,9.218335 v 21.52069 c -8.843104,0 -21.667621,5e-6 -31.909385,0 v -21.52069 c 0,-5.106954 4.111378,-9.218335 9.218335,-9.218335 z"
         sodipodi:nodetypes="sssccss" />
      <rect
         style="fill:#f48037;fill-opacity:1;stroke:#ffffff;stroke-width:5;stroke-linecap:round;stroke-dasharray:none;stroke-opacity:1"
         id="rect24"
         width="31.909386"
         height="30.739027"
         x="62.318794"
         y="129.96239"
         ry="0" />
      <rect
         style="fill:#f48037;fill-opacity:1;stroke:#ffffff;stroke-width:5;stroke-linecap:round;stroke-dasharray:none;stroke-opacity:1"
         id="rect25"
         width="31.909386"
         height="30.739027"
         x="62.318794"
         y="99.223351"
         ry="0" />
      <rect
         style="fill:#f48037;fill-opacity:1;stroke:#ffffff;stroke-width:5;stroke-linecap:round;stroke-dasharray:none;stroke-opacity:1"
         id="rect26"
         width="31.909386"
         height="30.739027"
         x="62.318794"
         y="68.484329"
         ry="0" />
    </g>
    <rect
       style="fill:#f48037;fill-opacity:1;stroke:none;stroke-width:3.44489;stroke-linecap:round;stroke-dasharray:none;stroke-opacity:1"
       id="rect30"
       width="48.899723"
       height="41.41206"
       x="41.159695"
       y="137.38245" />
    <g
       id="g24"
       style="stroke-width:5;stroke-dasharray:none"
       transform="matrix(1.0783179,0,0,1.0783179,-11.548519,-5.258434)">
      <path
         id="path22"
         style="fill:#f48037;fill-opacity:1;stroke:#ffffff;stroke-width:5;stroke-linecap:round;stroke-dasharray:none;stroke-opacity:1"
         d="m 71.537129,37.745303 h 13.472715 c 5.106958,0 9.218335,4.111381 9.218335,9.218335 v 21.52069 c -8.843104,0 -21.667621,5e-6 -31.909385,0 v -21.52069 c 0,-5.106954 4.111378,-9.218335 9.218335,-9.218335 z"
         sodipodi:nodetypes="sssccss" />
      <rect
         style="fill:#f48037;fill-opacity:1;stroke:#ffffff;stroke-width:5;stroke-linecap:round;stroke-dasharray:none;stroke-opacity:1"
         id="rect19"
         width="31.909386"
         height="30.739027"
         x="62.318794"
         y="99.223351"
         ry="0" />
      <rect
         style="fill:#f48037;fill-opacity:1;stroke:#ffffff;stroke-width:5;stroke-linecap:round;stroke-dasharray:none;stroke-opacity:1"
         id="rect20"
         width="31.909386"
         height="30.739027"
         x="62.318794"
         y="68.484329"
         ry="0" />
      <path
         id="path30"
         style="fill:#f48037;fill-opacity:1;stroke:#ffffff;stroke-width:5;stroke-linecap:round;stroke-dasharray:none;stroke-opacity:1"
         d="M 85.009844,160.70142 H 71.537129 c -5.106958,0 -9.218335,-4.11139 -9.218335,-9.21834 v -21.52069 c 8.843104,0 21.667621,0 31.909385,0 v 21.52069 c 0,5.10695 -4.111378,9.21834 -9.218335,9.21834 z"
         sodipodi:nodetypes="sssccss" />
    </g>
  </g>
</svg>
